<svg width="1200" height="600" viewBox="0 0 1200 600" xmlns="http://www.w3.org/2000/svg">
  <defs>
    <linearGradient id="grad" gradientUnits="userSpaceOnUse" x1="500" y1="236" x2="700" y2="394">
      <stop offset="0%" stop-color="#ffffff"/>
      <stop offset="38%" stop-color="#9af5c2"/>
      <stop offset="72%" stop-color="#22c55e"/>
      <stop offset="100%" stop-color="#12924a"/>
    </linearGradient>
    <radialGradient id="bgglow" cx="50%" cy="42%" r="62%">
      <stop offset="0%" stop-color="#1db95c" stop-opacity="0.28"/>
      <stop offset="55%" stop-color="#0c5a30" stop-opacity="0.10"/>
      <stop offset="100%" stop-color="#07120d" stop-opacity="0"/>
    </radialGradient>
    <filter id="glow" x="-30%" y="-30%" width="160%" height="160%">
      <feGaussianBlur in="SourceAlpha" stdDeviation="9" result="b"/>
      <feFlood flood-color="#22c55e" flood-opacity="0.55"/>
      <feComposite in2="b" operator="in" result="g"/>
      <feMerge><feMergeNode in="g"/><feMergeNode in="SourceGraphic"/></feMerge>
    </filter>
  </defs>

  <rect width="1200" height="600" fill="#07120d"/>
  <rect width="1200" height="600" fill="url(#bgglow)"/>

  <g filter="url(#glow)" transform="translate(-66,0)">
    <g transform="translate(314.32,360.00)" fill="url(#grad)"><path d="M41.9677734375 1.7578125C67.67578125 1.7578125 81.9580078125 -10.986328125 81.9580078125 -33.837890625V-109.130859375H51.4892578125V-34.423828125C51.4892578125 -27.392578125 47.900390625 -23.4375 41.455078125 -23.4375C35.009765625 -23.4375 31.4208984375 -27.392578125 31.4208984375 -34.423828125V-43.359375H3.2958984375V-34.716796875C3.2958984375 -11.279296875 17.138671875 1.7578125 41.9677734375 1.7578125Z"/><path d="M129.3740234375 1.7578125C154.5693359375 1.7578125 171.5615234375 -13.916015625 171.5615234375 -38.671875C171.5615234375 -63.3544921875 154.5693359375 -79.1015625 129.3740234375 -79.1015625C104.251953125 -79.1015625 87.1865234375 -63.3544921875 87.1865234375 -38.671875C87.1865234375 -13.8427734375 104.251953125 1.7578125 129.3740234375 1.7578125ZM129.3740234375 -21.09375C122.416015625 -21.09375 116.7763671875 -27.0263671875 116.7763671875 -38.671875C116.7763671875 -50.3173828125 122.416015625 -56.25 129.3740234375 -56.25C136.33203125 -56.25 141.9716796875 -50.3173828125 141.9716796875 -38.671875C141.9716796875 -27.0263671875 136.33203125 -21.09375 129.3740234375 -21.09375Z"/><path d="M227.9130859375 1.7578125C248.201171875 1.7578125 261.3115234375 -14.208984375 261.3115234375 -38.818359375C261.3115234375 -62.4755859375 247.615234375 -79.1015625 228.2060546875 -79.1015625C218.171875 -79.1015625 211.5068359375 -75.3662109375 206.599609375 -67.236328125H206.5263671875V-109.130859375H177.2294921875V0.0H206.2333984375V-12.01171875H206.306640625C209.822265625 -2.9296875 217.6591796875 1.7578125 227.9130859375 1.7578125ZM219.197265625 -21.240234375C211.2138671875 -21.240234375 205.5009765625 -28.125 205.5009765625 -38.818359375C205.5009765625 -49.4384765625 211.2138671875 -56.25 219.197265625 -56.25C227.1806640625 -56.25 231.7216796875 -49.4384765625 231.7216796875 -38.818359375C231.7216796875 -28.125 227.1806640625 -21.240234375 219.197265625 -21.240234375Z"/></g>
    <path d="M 585 300 L 620 372 L 700 236" fill="none" stroke="url(#grad)" stroke-width="30" stroke-linecap="round" stroke-linejoin="round"/>
    <g transform="translate(695.00,360.00)" fill="url(#grad)"><path d="M44.4580078125 1.7578125C64.8193359375 1.7578125 81.2255859375 -9.4482421875 84.08203125 -25.2685546875H58.154296875C56.54296875 -21.09375 51.85546875 -18.603515625 45.6298828125 -18.603515625C37.1337890625 -18.603515625 32.0068359375 -23.4375 31.787109375 -31.640625H84.375V-39.4775390625C84.375 -62.6953125 67.6025390625 -79.1015625 43.8720703125 -79.1015625C20.1416015625 -79.1015625 3.369140625 -62.3291015625 3.369140625 -38.671875C3.369140625 -15.0146484375 20.361328125 1.7578125 44.4580078125 1.7578125ZM32.0068359375 -48.046875C33.0322265625 -54.4189453125 37.5732421875 -58.154296875 44.677734375 -58.154296875C51.7822265625 -58.154296875 56.3232421875 -54.4189453125 57.3486328125 -48.046875Z"/><path d="M89.75 0.0H119.046875V-37.060546875C119.046875 -47.3876953125 124.8330078125 -53.90625 133.98828125 -53.90625H144.681640625V-77.34375H137.357421875C126.7373046875 -77.34375 121.09765625 -73.681640625 118.314453125 -63.28125H118.16796875V-77.34375H89.75Z"/><path d="M148.15234375 0.0H177.44921875V-77.34375H148.15234375ZM162.7275390625 -82.470703125C171.8828125 -82.470703125 178.328125 -88.330078125 178.328125 -96.6064453125C178.328125 -104.8095703125 171.8828125 -110.595703125 162.7275390625 -110.595703125C153.572265625 -110.595703125 147.126953125 -104.8095703125 147.126953125 -96.6064453125C147.126953125 -88.330078125 153.572265625 -82.470703125 162.7275390625 -82.470703125Z"/><path d="M240.685546875 -77.34375H224.71875V-79.1015625C224.71875 -84.7412109375 226.8427734375 -86.865234375 232.62890625 -86.865234375H240.685546875V-109.130859375H224.572265625C204.357421875 -109.130859375 195.421875 -101.513671875 195.421875 -84.228515625V-77.34375H181.212890625V-55.078125H195.421875V0.0H224.71875V-55.078125H240.685546875Z"/><path d="M248.9169921875 30.615234375H268.8388671875C282.7548828125 30.615234375 290.0791015625 24.90234375 295.71875 9.814453125L328.384765625 -77.34375H298.208984375L288.1015625 -44.53125C286.5634765625 -39.55078125 285.0986328125 -34.423828125 283.7802734375 -29.3701171875C282.388671875 -34.423828125 280.9970703125 -39.4775390625 279.5322265625 -44.53125L269.791015625 -77.34375H239.322265625L268.9853515625 0.0L268.619140625 1.171875C266.9345703125 6.591796875 266.0556640625 8.349609375 260.6357421875 8.349609375H248.9169921875Z"/></g>
  </g>

  <g transform="translate(109.87,452.00)" fill="#8fb6a2"><path d="M8.349609375 0.0H11.337890625L19.306640625 -21.826171875H16.552734375L11.953125 -8.671875C11.513671875 -7.3974609375 10.83984375 -5.4052734375 9.8876953125 -2.4169921875C8.90625 -5.4052734375 8.2470703125 -7.3974609375 7.79296875 -8.671875L3.076171875 -21.826171875H0.29296875Z"/><path d="M27.767578125 0.0H41.9619140625V-2.34375H30.404296875V-10.0048828125H41.1123046875V-12.3486328125H30.404296875V-19.482421875H41.9619140625V-21.826171875H27.767578125Z"/><path d="M51.1552734375 0.0H53.7919921875V-8.5693359375H59.05078125C59.1240234375 -8.5693359375 59.1826171875 -8.5693359375 59.255859375 -8.5693359375L63.85546875 0.0H66.931640625L62.0244140625 -8.994140625C64.880859375 -9.873046875 66.66796875 -12.0849609375 66.66796875 -15.205078125C66.66796875 -19.27734375 63.8115234375 -21.826171875 59.255859375 -21.826171875H51.1552734375ZM53.7919921875 -10.9130859375V-19.482421875H59.16796875C62.2001953125 -19.482421875 64.060546875 -17.8564453125 64.060546875 -15.205078125C64.060546875 -12.5537109375 62.21484375 -10.9130859375 59.197265625 -10.9130859375Z"/><path d="M78.76171875 -21.826171875H76.125V0.0H78.76171875Z"/><path d="M89.09765625 0.0H91.734375V-10.0048828125H101.9443359375V-12.3486328125H91.734375V-19.482421875H102.8232421875V-21.826171875H89.09765625Z"/><path d="M117.8759765625 0.0H120.5126953125V-8.994140625L128.5400390625 -21.826171875H125.5078125L121.142578125 -14.765625C120.4833984375 -13.681640625 119.8388671875 -12.59765625 119.208984375 -11.5283203125C118.5791015625 -12.59765625 117.94921875 -13.681640625 117.275390625 -14.765625L112.8955078125 -21.826171875H109.8486328125L117.8759765625 -8.994140625Z"/><path d="M150.5009765625 0.0H153.1376953125V-8.5693359375H158.396484375C158.4697265625 -8.5693359375 158.5283203125 -8.5693359375 158.6015625 -8.5693359375L163.201171875 0.0H166.27734375L161.3701171875 -8.994140625C164.2265625 -9.873046875 166.013671875 -12.0849609375 166.013671875 -15.205078125C166.013671875 -19.27734375 163.1572265625 -21.826171875 158.6015625 -21.826171875H150.5009765625ZM153.1376953125 -10.9130859375V-19.482421875H158.513671875C161.5458984375 -19.482421875 163.40625 -17.8564453125 163.40625 -15.205078125C163.40625 -12.5537109375 161.560546875 -10.9130859375 158.54296875 -10.9130859375Z"/><path d="M175.470703125 0.0H189.6650390625V-2.34375H178.107421875V-10.0048828125H188.8154296875V-12.3486328125H178.107421875V-19.482421875H189.6650390625V-21.826171875H175.470703125Z"/><path d="M208.1015625 0.3515625C212.671875 0.3515625 216.3046875 -2.490234375 217.095703125 -7.03125H214.4150390625C213.66796875 -3.8671875 211.2509765625 -2.109375 208.1015625 -2.109375C203.501953125 -2.109375 200.6455078125 -5.712890625 200.6455078125 -10.8984375C200.6455078125 -16.11328125 203.501953125 -19.716796875 208.1015625 -19.716796875C211.2802734375 -19.716796875 213.697265625 -17.9443359375 214.400390625 -14.765625H217.095703125C216.2900390625 -19.3212890625 212.671875 -22.177734375 208.1015625 -22.177734375C202.0517578125 -22.177734375 198.0087890625 -17.5048828125 198.0087890625 -10.8984375C198.0087890625 -4.3359375 202.06640625 0.3515625 208.1015625 0.3515625Z"/><path d="M226.5234375 0.0H229.16015625V-8.5693359375H234.4189453125C234.4921875 -8.5693359375 234.55078125 -8.5693359375 234.6240234375 -8.5693359375L239.2236328125 0.0H242.2998046875L237.392578125 -8.994140625C240.2490234375 -9.873046875 242.0361328125 -12.0849609375 242.0361328125 -15.205078125C242.0361328125 -19.27734375 239.1796875 -21.826171875 234.6240234375 -21.826171875H226.5234375ZM229.16015625 -10.9130859375V-19.482421875H234.5361328125C237.568359375 -19.482421875 239.4287109375 -17.8564453125 239.4287109375 -15.205078125C239.4287109375 -12.5537109375 237.5830078125 -10.9130859375 234.5654296875 -10.9130859375Z"/><path d="M259.8720703125 0.3515625C265.013671875 0.3515625 268.3681640625 -2.9296875 268.3681640625 -7.412109375V-21.826171875H265.7314453125V-7.6171875C265.7314453125 -4.423828125 263.51953125 -2.109375 259.8720703125 -2.109375C256.224609375 -2.109375 254.0126953125 -4.423828125 254.0126953125 -7.6171875V-21.826171875H251.3759765625V-7.412109375C251.3759765625 -2.9296875 254.73046875 0.3515625 259.8720703125 0.3515625Z"/><path d="M281.2236328125 -21.826171875H278.5869140625V0.0H281.2236328125Z"/><path d="M290.1240234375 -19.482421875H297.2431640625V0.0H299.8798828125V-19.482421875H306.9697265625V-21.826171875H290.1240234375Z"/><path d="M315.8701171875 0.0H330.064453125V-2.34375H318.5068359375V-10.0048828125H329.21484375V-12.3486328125H318.5068359375V-19.482421875H330.064453125V-21.826171875H315.8701171875Z"/><path d="M339.2578125 0.0H341.89453125V-8.5693359375H347.1533203125C347.2265625 -8.5693359375 347.28515625 -8.5693359375 347.3583984375 -8.5693359375L351.9580078125 0.0H355.0341796875L350.126953125 -8.994140625C352.9833984375 -9.873046875 354.7705078125 -12.0849609375 354.7705078125 -15.205078125C354.7705078125 -19.27734375 351.9140625 -21.826171875 347.3583984375 -21.826171875H339.2578125ZM341.89453125 -10.9130859375V-19.482421875H347.2705078125C350.302734375 -19.482421875 352.1630859375 -17.8564453125 352.1630859375 -15.205078125C352.1630859375 -12.5537109375 350.3173828125 -10.9130859375 347.2998046875 -10.9130859375Z"/><path d="M371.4345703125 0.3515625C376.1806640625 0.3515625 379.3447265625 -2.2119140625 379.3447265625 -6.005859375C379.3447265625 -9.052734375 377.3525390625 -10.927734375 373.1044921875 -11.982421875L370.62890625 -12.59765625C367.46484375 -13.388671875 366.2490234375 -14.3701171875 366.2490234375 -16.0693359375C366.2490234375 -18.2373046875 368.255859375 -19.7607421875 371.0830078125 -19.7607421875C374.0419921875 -19.7607421875 375.9609375 -18.10546875 376.1220703125 -15.380859375H378.7294921875C378.6123046875 -19.5703125 375.7119140625 -22.177734375 371.1708984375 -22.177734375C366.615234375 -22.177734375 363.6416015625 -19.7021484375 363.6416015625 -15.9375C363.6416015625 -12.9638671875 365.4873046875 -11.2353515625 369.9404296875 -10.13671875L372.38671875 -9.5361328125C375.5361328125 -8.759765625 376.7080078125 -7.705078125 376.7080078125 -5.888671875C376.7080078125 -3.544921875 374.61328125 -2.05078125 371.4345703125 -2.05078125C367.93359375 -2.05078125 365.8974609375 -3.9111328125 365.8974609375 -7.03125H363.2021484375C363.2021484375 -2.490234375 366.3955078125 0.3515625 371.4345703125 0.3515625Z"/><path d="M416.783203125 -8.5546875C417.80859375 -8.5546875 418.6142578125 -9.3603515625 418.6142578125 -10.3857421875C418.6142578125 -11.4111328125 417.80859375 -12.216796875 416.783203125 -12.216796875C415.7578125 -12.216796875 414.9521484375 -11.4111328125 414.9521484375 -10.3857421875C414.9521484375 -9.3603515625 415.7578125 -8.5546875 416.783203125 -8.5546875Z"/><path d="M461.9853515625 0.0C468.6357421875 0.0 472.4443359375 -4.130859375 472.4443359375 -10.95703125C472.4443359375 -17.724609375 468.6357421875 -21.826171875 462.2783203125 -21.826171875H455.2470703125V0.0ZM457.8837890625 -2.34375V-19.482421875H462.1025390625C467.2294921875 -19.482421875 469.8076171875 -16.23046875 469.8076171875 -10.95703125C469.8076171875 -5.625 467.2294921875 -2.34375 461.8095703125 -2.34375Z"/><path d="M481.9306640625 0.0H496.125V-2.34375H484.5673828125V-10.0048828125H495.275390625V-12.3486328125H484.5673828125V-19.482421875H496.125V-21.826171875H481.9306640625Z"/><path d="M503.8828125 -19.482421875H511.001953125V0.0H513.638671875V-19.482421875H520.728515625V-21.826171875H503.8828125Z"/><path d="M529.62890625 0.0H543.8232421875V-2.34375H532.265625V-10.0048828125H542.9736328125V-12.3486328125H532.265625V-19.482421875H543.8232421875V-21.826171875H529.62890625Z"/><path d="M562.259765625 0.3515625C566.830078125 0.3515625 570.462890625 -2.490234375 571.25390625 -7.03125H568.5732421875C567.826171875 -3.8671875 565.4091796875 -2.109375 562.259765625 -2.109375C557.66015625 -2.109375 554.8037109375 -5.712890625 554.8037109375 -10.8984375C554.8037109375 -16.11328125 557.66015625 -19.716796875 562.259765625 -19.716796875C565.4384765625 -19.716796875 567.85546875 -17.9443359375 568.55859375 -14.765625H571.25390625C570.4482421875 -19.3212890625 566.830078125 -22.177734375 562.259765625 -22.177734375C556.2099609375 -22.177734375 552.1669921875 -17.5048828125 552.1669921875 -10.8984375C552.1669921875 -4.3359375 556.224609375 0.3515625 562.259765625 0.3515625Z"/><path d="M579.24609375 -19.482421875H586.365234375V0.0H589.001953125V-19.482421875H596.091796875V-21.826171875H579.24609375Z"/><path d="M623.8681640625 0.29296875C627.662109375 0.29296875 630.3134765625 -2.0361328125 630.3134765625 -6.2109375V-21.826171875H627.6767578125V-6.2109375C627.6767578125 -3.5009765625 626.1533203125 -2.05078125 623.8681640625 -2.05078125C621.5830078125 -2.05078125 620.0595703125 -3.5009765625 620.0595703125 -6.2109375V-7.3828125H617.4228515625V-6.2109375C617.4228515625 -2.0361328125 620.07421875 0.29296875 623.8681640625 0.29296875Z"/><path d="M649.599609375 0.3515625C655.3857421875 0.3515625 659.5166015625 -4.3505859375 659.5166015625 -10.8984375C659.5166015625 -17.4755859375 655.3857421875 -22.177734375 649.599609375 -22.177734375C643.8134765625 -22.177734375 639.6826171875 -17.4755859375 639.6826171875 -10.8984375C639.6826171875 -4.3505859375 643.8134765625 0.3515625 649.599609375 0.3515625ZM649.599609375 -2.109375C645.6298828125 -2.109375 642.3193359375 -5.244140625 642.3193359375 -10.8984375C642.3193359375 -16.58203125 645.6298828125 -19.716796875 649.599609375 -19.716796875C653.5546875 -19.716796875 656.8798828125 -16.58203125 656.8798828125 -10.8984375C656.8798828125 -5.244140625 653.5546875 -2.109375 649.599609375 -2.109375Z"/><path d="M669.0029296875 0.0H677.0009765625C682.2451171875 0.0 684.80859375 -2.3876953125 684.80859375 -6.123046875C684.80859375 -9.2431640625 682.845703125 -10.869140625 680.3701171875 -11.279296875V-11.30859375C682.5966796875 -12.0556640625 683.9150390625 -13.5205078125 683.9150390625 -16.025390625C683.9150390625 -19.5849609375 681.263671875 -21.826171875 676.8837890625 -21.826171875H669.0029296875ZM671.6396484375 -2.34375V-9.931640625H677.1474609375C680.3408203125 -9.931640625 682.1279296875 -8.4375 682.1279296875 -6.0205078125C682.1279296875 -3.603515625 680.296875 -2.34375 677.0009765625 -2.34375ZM671.6396484375 -12.24609375V-19.482421875H676.986328125C679.6962890625 -19.482421875 681.3076171875 -18.0908203125 681.3076171875 -15.8642578125C681.3076171875 -13.6376953125 679.6962890625 -12.24609375 676.986328125 -12.24609375Z"/><path d="M703.1865234375 -10.078125H693.6357421875V-7.734375H703.1865234375Z"/><path d="M722.0771484375 0.3515625C727.86328125 0.3515625 731.994140625 -4.3505859375 731.994140625 -10.8984375C731.994140625 -17.4755859375 727.86328125 -22.177734375 722.0771484375 -22.177734375C716.291015625 -22.177734375 712.16015625 -17.4755859375 712.16015625 -10.8984375C712.16015625 -4.3505859375 716.291015625 0.3515625 722.0771484375 0.3515625ZM722.0771484375 -2.109375C718.107421875 -2.109375 714.796875 -5.244140625 714.796875 -10.8984375C714.796875 -16.58203125 718.107421875 -19.716796875 722.0771484375 -19.716796875C726.0322265625 -19.716796875 729.357421875 -16.58203125 729.357421875 -10.8984375C729.357421875 -5.244140625 726.0322265625 -2.109375 722.0771484375 -2.109375Z"/><path d="M741.48046875 0.0H744.1171875V-10.0048828125H754.3271484375V-12.3486328125H744.1171875V-19.482421875H755.2060546875V-21.826171875H741.48046875Z"/><path d="M764.1064453125 0.0H766.7431640625V-10.0048828125H776.953125V-12.3486328125H766.7431640625V-19.482421875H777.83203125V-21.826171875H764.1064453125Z"/><path d="M786.732421875 0.0H800.9267578125V-2.34375H789.369140625V-10.0048828125H800.0771484375V-12.3486328125H789.369140625V-19.482421875H800.9267578125V-21.826171875H786.732421875Z"/><path d="M810.1201171875 0.0H812.7568359375V-8.5693359375H818.015625C818.0888671875 -8.5693359375 818.1474609375 -8.5693359375 818.220703125 -8.5693359375L822.8203125 0.0H825.896484375L820.9892578125 -8.994140625C823.845703125 -9.873046875 825.6328125 -12.0849609375 825.6328125 -15.205078125C825.6328125 -19.27734375 822.7763671875 -21.826171875 818.220703125 -21.826171875H810.1201171875ZM812.7568359375 -10.9130859375V-19.482421875H818.1328125C821.1650390625 -19.482421875 823.025390625 -17.8564453125 823.025390625 -15.205078125C823.025390625 -12.5537109375 821.1796875 -10.9130859375 818.162109375 -10.9130859375Z"/><path d="M855.796875 0.3515625C860.54296875 0.3515625 863.70703125 -2.2119140625 863.70703125 -6.005859375C863.70703125 -9.052734375 861.71484375 -10.927734375 857.466796875 -11.982421875L854.9912109375 -12.59765625C851.8271484375 -13.388671875 850.611328125 -14.3701171875 850.611328125 -16.0693359375C850.611328125 -18.2373046875 852.6181640625 -19.7607421875 855.4453125 -19.7607421875C858.404296875 -19.7607421875 860.3232421875 -18.10546875 860.484375 -15.380859375H863.091796875C862.974609375 -19.5703125 860.07421875 -22.177734375 855.533203125 -22.177734375C850.9775390625 -22.177734375 848.00390625 -19.7021484375 848.00390625 -15.9375C848.00390625 -12.9638671875 849.849609375 -11.2353515625 854.302734375 -10.13671875L856.7490234375 -9.5361328125C859.8984375 -8.759765625 861.0703125 -7.705078125 861.0703125 -5.888671875C861.0703125 -3.544921875 858.9755859375 -2.05078125 855.796875 -2.05078125C852.2958984375 -2.05078125 850.259765625 -3.9111328125 850.259765625 -7.03125H847.564453125C847.564453125 -2.490234375 850.7578125 0.3515625 855.796875 0.3515625Z"/><path d="M882.2607421875 0.3515625C886.8310546875 0.3515625 890.4638671875 -2.490234375 891.2548828125 -7.03125H888.57421875C887.8271484375 -3.8671875 885.41015625 -2.109375 882.2607421875 -2.109375C877.6611328125 -2.109375 874.8046875 -5.712890625 874.8046875 -10.8984375C874.8046875 -16.11328125 877.6611328125 -19.716796875 882.2607421875 -19.716796875C885.439453125 -19.716796875 887.8564453125 -17.9443359375 888.5595703125 -14.765625H891.2548828125C890.44921875 -19.3212890625 886.8310546875 -22.177734375 882.2607421875 -22.177734375C876.2109375 -22.177734375 872.16796875 -17.5048828125 872.16796875 -10.8984375C872.16796875 -4.3359375 876.2255859375 0.3515625 882.2607421875 0.3515625Z"/><path d="M898.8076171875 0.0H901.5615234375L903.7587890625 -6.123046875H912.8701171875L915.0087890625 0.0H917.8212890625L909.8525390625 -21.826171875H906.8642578125ZM904.59375 -8.466796875 906.2783203125 -13.154296875C906.8349609375 -14.6923828125 907.4208984375 -16.4501953125 908.3583984375 -19.3505859375C909.2958984375 -16.4501953125 909.8818359375 -14.6923828125 910.423828125 -13.154296875L912.064453125 -8.466796875Z"/><path d="M926.2822265625 0.0H928.8896484375V-12.65625C928.8896484375 -14.1357421875 928.8603515625 -16.0107421875 928.8017578125 -17.8125C929.63671875 -15.64453125 930.33984375 -13.76953125 930.7939453125 -12.65625L935.8916015625 0.0H938.0595703125L943.1279296875 -12.65625C943.5966796875 -13.828125 944.3291015625 -15.8203125 945.1640625 -18.134765625C945.1201171875 -16.23046875 945.076171875 -14.2236328125 945.076171875 -12.65625V0.0H947.6689453125V-21.826171875H944.0654296875L938.6162109375 -7.734375C938.2353515625 -6.7236328125 937.48828125 -4.7900390625 937.01953125 -3.4716796875C936.5361328125 -4.7900390625 935.8037109375 -6.7236328125 935.408203125 -7.734375L929.87109375 -21.826171875H926.2822265625Z"/><path d="M965.2119140625 0.3515625C969.9580078125 0.3515625 973.1220703125 -2.2119140625 973.1220703125 -6.005859375C973.1220703125 -9.052734375 971.1298828125 -10.927734375 966.8818359375 -11.982421875L964.40625 -12.59765625C961.2421875 -13.388671875 960.0263671875 -14.3701171875 960.0263671875 -16.0693359375C960.0263671875 -18.2373046875 962.033203125 -19.7607421875 964.8603515625 -19.7607421875C967.8193359375 -19.7607421875 969.73828125 -18.10546875 969.8994140625 -15.380859375H972.5068359375C972.3896484375 -19.5703125 969.4892578125 -22.177734375 964.9482421875 -22.177734375C960.392578125 -22.177734375 957.4189453125 -19.7021484375 957.4189453125 -15.9375C957.4189453125 -12.9638671875 959.2646484375 -11.2353515625 963.7177734375 -10.13671875L966.1640625 -9.5361328125C969.3134765625 -8.759765625 970.4853515625 -7.705078125 970.4853515625 -5.888671875C970.4853515625 -3.544921875 968.390625 -2.05078125 965.2119140625 -2.05078125C961.7109375 -2.05078125 959.6748046875 -3.9111328125 959.6748046875 -7.03125H956.9794921875C956.9794921875 -2.490234375 960.1728515625 0.3515625 965.2119140625 0.3515625Z"/></g>
</svg>
